<svg version="1.1" id="Layer_1" xmlns="http://www.w3.org/2000/svg" xmlns:xlink="http://www.w3.org/1999/xlink" x="0px" y="0px"
	 width="100%" viewBox="0 0 1024 1024" enable-background="new 0 0 1024 1024" xml:space="preserve">
<path fill="#000000" opacity="1.000000" stroke="none" 
	d="
M818.233459,647.395752 
	C789.510193,652.628296 761.183044,652.564636 732.833740,647.909668 
	C729.638428,647.385010 726.840515,646.125549 724.524536,643.720032 
	C720.271118,639.302063 715.238586,635.676331 711.674500,630.535767 
	C709.931274,628.021423 706.277161,628.404114 704.040405,626.133301 
	C698.708313,620.720215 695.387085,614.721924 694.891479,606.862061 
	C693.792297,589.429626 692.158447,572.030396 690.694824,554.621704 
	C689.432007,539.602234 688.103088,524.588318 686.732849,508.756592 
	C683.970581,511.041992 683.004395,513.333313 681.867859,515.477356 
	C669.285706,539.213135 652.638977,560.004456 634.757690,579.828308 
	C609.259949,608.096191 581.331116,633.799683 551.416504,657.339172 
	C544.477966,662.798828 544.392517,662.775391 537.605591,657.421753 
	C494.227875,623.204651 454.991638,584.917236 422.412842,540.095581 
	C422.036041,539.577148 421.648132,539.066895 420.354034,537.328552 
	C422.304321,551.785522 424.077362,564.857849 425.829376,577.933105 
	C428.236755,595.899475 430.667725,613.862793 432.999298,631.839050 
	C433.601501,636.482178 430.824402,640.714539 425.865753,641.910156 
	C405.641205,646.786621 385.372711,651.484375 365.084961,656.091980 
	C360.812042,657.062439 357.276764,654.951782 354.311432,652.025391 
	C350.046967,647.817017 346.011993,643.365967 341.608917,639.311890 
	C338.741913,636.672119 334.708923,635.706238 331.812225,632.854126 
	C328.468384,629.561890 324.589478,626.786133 324.805267,620.739258 
	C318.682434,625.371216 312.058472,624.189087 305.900116,625.002747 
	C293.368530,626.658325 280.748199,627.636658 268.170776,628.954590 
	C265.704498,629.213074 263.619537,628.609497 261.621338,627.169128 
	C257.125275,623.928406 253.333313,619.970642 249.705765,615.829529 
	C244.910385,610.355286 242.047592,608.475464 235.148788,606.294922 
	C233.822678,607.874512 234.408615,609.786255 234.386917,611.538208 
	C234.273529,620.702576 234.333527,629.869324 234.186859,639.032959 
	C234.080414,645.684937 230.546112,649.434692 223.903748,650.281616 
	C206.247864,652.532837 188.588989,654.760925 170.937546,657.046448 
	C167.834915,657.448181 164.734467,657.353943 162.409134,655.218201 
	C157.549728,650.755066 151.833130,647.080933 148.543152,641.100647 
	C147.786621,639.725464 146.532776,639.584106 145.379898,638.979370 
	C137.015915,634.592468 130.678421,627.700256 131.344711,617.703796 
	C133.182358,590.133606 133.736633,562.478760 134.862671,534.860046 
	C136.164948,502.918457 137.497101,470.978027 138.890381,439.040314 
	C139.804596,418.084229 140.833389,397.133057 141.843597,376.181274 
	C142.382751,364.999603 145.325912,361.563568 156.433746,359.513824 
	C175.742798,355.950684 195.058655,352.419128 214.402863,349.053680 
	C225.139191,347.185852 232.603622,353.106323 238.604065,360.778320 
	C241.115372,363.989166 243.899384,366.733795 247.099304,368.824768 
	C254.488434,373.653137 258.945374,380.052704 261.064606,388.651550 
	C263.411285,398.173218 266.590424,407.490540 269.447296,416.884613 
	C269.819702,418.109192 270.011993,419.488068 271.562469,420.527954 
	C274.674652,410.229401 276.434570,399.786469 278.683838,389.466217 
	C281.127960,378.251892 283.380371,366.995850 285.763733,355.768066 
	C286.384521,352.843689 286.868378,349.822784 288.520508,347.261078 
	C291.019379,343.386444 294.449249,340.855652 299.293091,341.298492 
	C319.175049,343.116119 339.045135,345.064240 358.927795,346.873901 
	C366.518555,347.564758 372.291107,351.535095 377.498260,356.643616 
	C382.328491,361.382294 386.505096,366.773407 392.630798,370.157410 
	C396.751312,372.433716 399.007904,376.176697 399.499603,381.118652 
	C400.091431,387.067200 401.228729,392.961792 402.141602,398.877930 
	C402.400482,400.555542 402.166473,401.975769 401.290314,403.593933 
	C389.945221,424.546326 386.771820,446.498688 393.411163,469.641479 
	C394.415680,473.142975 394.926514,476.796112 395.524445,480.402527 
	C398.045074,495.606110 404.908051,509.086609 412.360199,522.273010 
	C417.904663,532.083801 425.022217,533.635498 435.160492,528.399963 
	C443.994720,523.837830 453.011780,519.617798 462.046387,515.460205 
	C467.249420,513.065857 472.868195,512.208374 478.592133,512.112976 
	C483.421570,512.032410 488.230713,511.877441 493.044342,511.234589 
	C501.869843,510.055908 509.904449,513.014465 517.433838,517.099976 
	C525.905151,521.696594 534.735229,525.598389 542.710205,531.191956 
	C551.651733,537.463440 561.450378,534.047913 570.701477,531.786316 
	C576.386230,530.396729 581.890625,529.005371 587.806335,528.838806 
	C596.078552,528.605957 603.051086,524.951965 607.772095,518.132019 
	C613.300476,510.145782 620.152832,504.736633 630.135437,504.044525 
	C632.529724,503.878571 633.988586,502.373688 635.318542,500.549408 
	C637.031311,498.200317 638.278809,494.147217 641.612793,494.979767 
	C645.545959,495.961914 643.703430,500.324829 644.227173,503.240631 
	C644.608582,505.364136 644.711792,507.539948 644.896423,509.696045 
	C645.349976,514.993347 648.341309,517.360413 653.623718,516.572571 
	C664.831116,514.901062 672.211365,508.034637 674.269897,496.985138 
	C676.167664,486.798981 677.752869,476.437927 674.455322,466.340576 
	C670.749695,454.993835 663.988098,446.028900 652.206848,441.713898 
	C648.777405,440.457825 646.724487,437.715851 646.983032,433.982147 
	C647.554260,425.732147 647.086670,417.296600 651.109619,409.595673 
	C653.540100,404.943085 653.104248,399.341278 655.237122,394.743073 
	C658.501648,387.705231 657.679565,382.049469 652.325562,376.574310 
	C651.087830,375.308563 649.441711,373.753174 649.496643,370.705414 
	C659.736328,372.459351 667.060608,378.972595 675.286255,384.974060 
	C675.286255,379.845795 675.712158,375.144867 675.199341,370.548676 
	C674.062500,360.359344 676.093384,356.336487 685.837708,353.226654 
	C712.106323,344.843231 738.938599,338.923401 766.561646,338.123505 
	C790.805542,337.421509 814.435791,341.168365 834.082458,356.675171 
	C846.579956,366.539185 858.703491,377.278015 869.179565,389.217316 
	C890.015808,412.963806 890.930054,454.260529 872.293762,480.122864 
	C869.444641,484.076691 869.104431,486.714905 872.573364,490.327332 
	C875.593140,493.471863 878.814392,496.361298 882.171204,499.048798 
	C919.619873,529.030212 922.421387,591.184021 877.292297,623.206726 
	C859.522400,635.815796 839.820557,643.223633 818.233459,647.395752 
M324.601196,353.156189 
	C316.975586,352.476929 309.307312,352.095123 301.740143,351.008759 
	C297.076477,350.339203 295.730499,352.113007 294.855621,356.331848 
	C286.783630,395.254517 278.549255,434.143677 270.260101,473.020844 
	C268.901337,479.393524 268.068298,485.937714 265.657501,492.234558 
	C263.121460,490.966125 263.479004,488.805115 263.025238,487.199036 
	C251.800385,447.466858 240.668884,407.708282 229.529694,367.951904 
	C227.687973,361.378693 222.252899,357.316132 215.808380,358.418457 
	C195.472000,361.896820 175.181274,365.641327 154.855621,369.183838 
	C152.141312,369.656891 151.357681,371.055664 151.251221,373.594086 
	C149.967346,404.202698 148.597015,434.807709 147.287872,465.415314 
	C146.483810,484.214111 145.733337,503.015259 144.981644,521.816284 
	C143.677765,554.428406 142.355255,587.039856 141.131927,619.655029 
	C140.915344,625.429016 144.752228,629.235107 150.467957,628.665710 
	C166.690964,627.049622 182.883728,625.131531 199.093674,623.381104 
	C202.479218,623.015564 203.839508,621.531738 203.862747,617.892151 
	C203.979843,599.568420 204.403046,581.246826 204.675873,562.923828 
	C205.047958,537.935425 205.373138,512.946350 205.755783,487.958130 
	C205.774368,486.743347 205.238876,485.276550 207.420197,483.939301 
	C209.386292,490.401337 211.364975,496.616089 213.168396,502.881287 
	C221.637894,532.304932 230.055267,561.743652 238.500809,591.174194 
	C240.386490,597.745239 244.871246,601.183289 250.713226,600.562744 
	C263.120728,599.244934 275.515106,597.784729 287.939514,596.653564 
	C293.061188,596.187134 295.575470,594.253723 296.795349,588.820862 
	C304.485657,554.570557 312.615509,520.418884 320.604736,486.235687 
	C320.948303,484.765564 320.687775,482.935913 322.994385,482.114410 
	C323.134644,483.203949 323.270081,483.999023 323.335205,484.799805 
	C324.548889,499.721069 325.774200,514.641418 326.956238,529.565247 
	C328.440918,548.310242 329.935120,567.054749 331.334381,585.806274 
	C332.126801,596.425781 332.645721,607.065918 333.463898,617.683167 
	C333.961731,624.143127 339.232727,628.140564 345.479034,626.779358 
	C363.201508,622.917114 380.880737,618.856323 398.608276,615.018311 
	C401.438049,614.405640 402.487762,613.450500 402.069824,610.357422 
	C400.020111,595.189514 398.319092,579.974426 396.276123,564.805542 
	C392.190918,534.473022 387.842499,504.175659 383.825348,473.834320 
	C379.065613,437.884003 374.472443,401.911896 368.980133,366.063202 
	C368.178619,360.831818 364.483398,356.957458 359.324066,356.410919 
	C348.071838,355.218933 336.794373,354.265198 324.601196,353.156189 
M879.666321,540.420776 
	C879.763428,505.036346 860.116333,483.904297 829.239075,471.235107 
	C829.705078,468.742920 831.498291,467.909668 832.772705,466.698212 
	C846.312805,453.826324 853.934814,438.134644 854.642395,419.433228 
	C856.017090,383.098358 832.162109,359.909180 800.762573,351.307831 
	C782.645935,346.345062 764.234619,346.800659 745.741394,349.232605 
	C726.022888,351.825714 706.843811,356.591248 687.924805,362.571320 
	C685.357239,363.382935 684.080566,364.922119 684.305420,367.728271 
	C684.744080,373.201752 684.652161,378.751831 685.534058,384.146881 
	C686.571228,390.491333 685.436340,397.158661 688.744385,403.191895 
	C699.403442,422.632050 701.997559,443.456573 698.708557,465.136627 
	C697.539185,472.845123 694.608032,480.479187 694.649170,488.135559 
	C694.719482,501.238739 696.461914,514.335815 697.567322,527.429871 
	C699.134155,545.989014 700.759216,564.543152 702.361328,583.099304 
	C703.105469,591.717712 703.699707,600.352844 704.651672,608.948242 
	C705.363281,615.372864 708.865723,619.061035 714.933777,619.942078 
	C735.109558,622.871704 755.360413,623.657410 775.690735,621.757629 
	C798.077759,619.665649 819.870789,615.406128 839.667603,604.037231 
	C863.898865,590.121643 878.319946,569.890686 879.666321,540.420776 
z"/>
<path fill="#000000" opacity="1.000000" stroke="none" 
	d="
M816.210632,532.183960 
	C816.437805,545.745850 810.110046,554.696228 798.543640,560.228271 
	C789.706177,564.455139 780.242065,565.966553 770.557007,566.662109 
	C766.537231,566.950745 766.271362,564.318604 765.970642,561.668335 
	C764.829041,551.608398 763.801575,541.535645 762.719482,531.468872 
	C762.134460,526.026123 761.646362,520.568970 760.886047,515.150391 
	C760.340271,511.260681 761.041138,508.992828 765.607849,508.336334 
	C774.883484,507.002991 784.100037,506.345795 793.374451,508.009155 
	C809.082642,510.826385 813.613953,515.551575 816.210632,532.183960 
M800.999023,547.523071 
	C804.093689,544.639221 806.474548,541.439087 805.890381,536.363037 
	C801.716003,536.646667 796.706726,534.601624 794.107239,538.149414 
	C791.562744,541.622131 793.828796,546.290161 794.944397,550.299011 
	C797.536011,550.725952 798.890198,549.118774 800.999023,547.523071 
z"/>
<path fill="#000000" opacity="1.000000" stroke="none" 
	d="
M753.867188,444.752930 
	C752.773682,433.570282 751.817993,422.820709 750.625366,412.097534 
	C750.190491,408.187622 751.510498,406.441711 755.444336,405.687897 
	C764.666260,403.920624 773.765930,402.607788 783.018616,405.621521 
	C786.809082,406.856140 789.306274,409.085327 790.949097,412.599426 
	C796.727295,424.958923 792.684814,438.532318 780.989258,445.554718 
	C775.661621,448.753632 769.837524,450.633911 763.728638,451.768982 
	C755.407471,453.315063 755.420715,453.386261 753.867188,444.752930 
z"/>
</svg>